<svg width="1440" height="900" viewBox="0 0 1440 900" fill="none" xmlns="http://www.w3.org/2000/svg">
  <rect width="1440" height="900" fill="#242629"/>
  <rect x="58" y="52" width="1324" height="796" rx="18" fill="#2b2e32" stroke="#3d4147"/>
  <rect x="58" y="52" width="1324" height="68" rx="18" fill="#303338"/>
  <rect x="58" y="102" width="1324" height="18" fill="#303338"/>
  <circle cx="99" cy="86" r="8" fill="#c9866a"/>
  <circle cx="127" cy="86" r="8" fill="#c9b96a"/>
  <circle cx="155" cy="86" r="8" fill="#8fbfa8"/>
  <text x="206" y="92" fill="#f1eee7" font-family="SFMono-Regular, Consolas, monospace" font-size="18" font-weight="700">raid-protocol / frame-inspector</text>
  <text x="1110" y="92" fill="#9ea5ad" font-family="SFMono-Regular, Consolas, monospace" font-size="15">source only</text>
  <rect x="94" y="164" width="420" height="632" rx="14" fill="#25272b" stroke="#3a3e44"/>
  <text x="126" y="210" fill="#f1eee7" font-family="Inter, Arial, sans-serif" font-size="28" font-weight="700">Frame Registry</text>
  <text x="126" y="246" fill="#9ea5ad" font-family="Inter, Arial, sans-serif" font-size="17">Binary fixtures and typed protocol contracts</text>
  <g font-family="SFMono-Regular, Consolas, monospace" font-size="16">
    <rect x="126" y="292" width="330" height="46" rx="8" fill="#303338" stroke="#41464d"/>
    <text x="148" y="321" fill="#8fbfa8">AUTH_HELLO</text>
    <text x="346" y="321" fill="#9ea5ad">0x01</text>
    <rect x="126" y="356" width="330" height="46" rx="8" fill="#303338" stroke="#41464d"/>
    <text x="148" y="385" fill="#8fbfa8">PLAYER_INPUT</text>
    <text x="346" y="385" fill="#9ea5ad">0x13</text>
    <rect x="126" y="420" width="330" height="46" rx="8" fill="#303338" stroke="#41464d"/>
    <text x="148" y="449" fill="#8fbfa8">STATE_DELTA</text>
    <text x="346" y="449" fill="#9ea5ad">0x24</text>
  </g>
  <rect x="558" y="164" width="786" height="280" rx="14" fill="#25272b" stroke="#3a3e44"/>
  <text x="592" y="211" fill="#f1eee7" font-family="Inter, Arial, sans-serif" font-size="26" font-weight="700">Frame Layout</text>
  <text x="592" y="246" fill="#9ea5ad" font-family="Inter, Arial, sans-serif" font-size="16">header, payload, checksum, compatibility marker</text>
  <g transform="translate(594 294)">
    <rect width="690" height="78" rx="10" fill="#303338" stroke="#41464d"/>
    <rect x="18" y="18" width="104" height="42" rx="7" fill="#8fbfa8"/>
    <rect x="136" y="18" width="168" height="42" rx="7" fill="#3e4a43"/>
    <rect x="318" y="18" width="236" height="42" rx="7" fill="#3a3e44"/>
    <rect x="568" y="18" width="104" height="42" rx="7" fill="#3e4a43"/>
    <text x="45" y="45" fill="#17221c" font-family="SFMono-Regular, Consolas, monospace" font-size="15" font-weight="700">type</text>
    <text x="173" y="45" fill="#cbd1d6" font-family="SFMono-Regular, Consolas, monospace" font-size="15">length</text>
    <text x="389" y="45" fill="#cbd1d6" font-family="SFMono-Regular, Consolas, monospace" font-size="15">payload</text>
    <text x="596" y="45" fill="#cbd1d6" font-family="SFMono-Regular, Consolas, monospace" font-size="15">crc</text>
  </g>
  <rect x="558" y="484" width="786" height="312" rx="14" fill="#25272b" stroke="#3a3e44"/>
  <text x="592" y="531" fill="#f1eee7" font-family="Inter, Arial, sans-serif" font-size="26" font-weight="700">Compatibility Checks</text>
  <g font-family="SFMono-Regular, Consolas, monospace" font-size="16">
    <text x="592" y="586" fill="#8fbfa8">PASS</text>
    <text x="662" y="586" fill="#cbd1d6">auth_hello.frame.hex matches registry schema</text>
    <text x="592" y="630" fill="#8fbfa8">PASS</text>
    <text x="662" y="630" fill="#cbd1d6">player_input invalid frame rejected</text>
    <text x="592" y="674" fill="#8fbfa8">PASS</text>
    <text x="662" y="674" fill="#cbd1d6">ts package and cpp tests share fixture contract</text>
  </g>
</svg>
