<svg xmlns="http://www.w3.org/2000/svg" width="1600" height="1000" viewBox="0 0 1600 1000" role="img" aria-labelledby="title desc">
  <title id="title">Chatbot Evaluation Lab dashboard preview</title>
  <desc id="desc">A stylized evaluation dashboard with suites, score cards, run results, conversation review, and report export.</desc>
  <defs>
    <linearGradient id="bg" x1="0" y1="0" x2="1" y2="1"><stop offset="0" stop-color="#fbfdff"/><stop offset=".58" stop-color="#eef7ff"/><stop offset="1" stop-color="#eefbf6"/></linearGradient>
    <filter id="shadow" x="-20%" y="-20%" width="140%" height="140%"><feDropShadow dx="0" dy="26" stdDeviation="28" flood-color="#0f2338" flood-opacity=".15"/></filter>
  </defs>
  <rect width="1600" height="1000" fill="url(#bg)"/>
  <rect x="92" y="76" width="1416" height="848" rx="36" fill="#fff" filter="url(#shadow)"/>
  <rect x="92" y="76" width="1416" height="82" rx="36" fill="#101827"/>
  <text x="134" y="126" fill="#f8fafc" font-family="Inter, Arial, sans-serif" font-size="30" font-weight="900">Chatbot Evaluation Lab</text>
  <rect x="1218" y="98" width="116" height="38" rx="12" fill="#1d2c45"/><text x="1245" y="123" fill="#bfdbfe" font-family="Inter, Arial, sans-serif" font-size="15" font-weight="800">KO / EN</text>
  <rect x="1350" y="98" width="112" height="38" rx="12" fill="#0f9f8f"/><text x="1380" y="123" fill="#fff" font-family="Inter, Arial, sans-serif" font-size="15" font-weight="900">Run</text>
  <rect x="124" y="190" width="292" height="682" rx="24" fill="#f8fafc" stroke="#d9e4ef"/>
  <text x="158" y="238" fill="#172339" font-family="Inter, Arial, sans-serif" font-size="21" font-weight="900">Suites</text>
  <g font-family="Inter, Arial, sans-serif">
    <rect x="154" y="272" width="232" height="72" rx="18" fill="#e7f8f5" stroke="#8ee0d5"/>
    <text x="178" y="306" fill="#0b817a" font-size="17" font-weight="900">cs-refund-ko-en</text>
    <text x="178" y="330" fill="#557083" font-size="13" font-weight="700">24 cases · bilingual</text>
    <rect x="154" y="362" width="232" height="72" rx="18" fill="#fff" stroke="#d9e4ef"/>
    <text x="178" y="396" fill="#1e314f" font-size="17" font-weight="900">safety-support</text>
    <text x="178" y="420" fill="#557083" font-size="13" font-weight="700">18 cases · policy</text>
    <rect x="154" y="452" width="232" height="72" rx="18" fill="#fff" stroke="#d9e4ef"/>
    <text x="178" y="486" fill="#1e314f" font-size="17" font-weight="900">conversation import</text>
    <text x="178" y="510" fill="#557083" font-size="13" font-weight="700">JSON replay</text>
  </g>
  <rect x="456" y="190" width="558" height="330" rx="26" fill="#fff" stroke="#d9e4ef"/>
  <text x="494" y="242" fill="#172339" font-family="Inter, Arial, sans-serif" font-size="29" font-weight="900">Run summary</text>
  <g font-family="Inter, Arial, sans-serif">
    <rect x="494" y="278" width="142" height="132" rx="18" fill="#ecfdf5" stroke="#a7f3d0"/>
    <text x="526" y="322" fill="#047857" font-size="16" font-weight="900">Score</text>
    <text x="526" y="374" fill="#064e3b" font-size="48" font-weight="950">91</text>
    <rect x="660" y="278" width="142" height="132" rx="18" fill="#eff6ff" stroke="#bfdbfe"/>
    <text x="692" y="322" fill="#2563eb" font-size="16" font-weight="900">Passed</text>
    <text x="692" y="374" fill="#1e3a8a" font-size="48" font-weight="950">19</text>
    <rect x="826" y="278" width="142" height="132" rx="18" fill="#fff7ed" stroke="#fed7aa"/>
    <text x="858" y="322" fill="#c2410c" font-size="16" font-weight="900">Needs review</text>
    <text x="858" y="374" fill="#9a3412" font-size="48" font-weight="950">5</text>
  </g>
  <rect x="456" y="552" width="558" height="320" rx="26" fill="#fff" stroke="#d9e4ef"/>
  <text x="494" y="602" fill="#172339" font-family="Inter, Arial, sans-serif" font-size="25" font-weight="900">Case review</text>
  <g font-family="Inter, Arial, sans-serif">
    <rect x="494" y="632" width="482" height="58" rx="15" fill="#f8fafc" stroke="#e2e8f0"/>
    <text x="518" y="667" fill="#1e314f" font-size="16" font-weight="900">refund-policy-ko</text>
    <text x="864" y="667" fill="#047857" font-size="15" font-weight="900">pass</text>
    <rect x="494" y="706" width="482" height="58" rx="15" fill="#fff7ed" stroke="#fed7aa"/>
    <text x="518" y="741" fill="#1e314f" font-size="16" font-weight="900">unsupported-promise</text>
    <text x="836" y="741" fill="#c2410c" font-size="15" font-weight="900">human review</text>
    <rect x="494" y="780" width="482" height="58" rx="15" fill="#f8fafc" stroke="#e2e8f0"/>
    <text x="518" y="815" fill="#1e314f" font-size="16" font-weight="900">language-consistency</text>
    <text x="864" y="815" fill="#047857" font-size="15" font-weight="900">pass</text>
  </g>
  <rect x="1050" y="190" width="396" height="682" rx="26" fill="#101827"/>
  <text x="1090" y="242" fill="#f8fafc" font-family="Inter, Arial, sans-serif" font-size="25" font-weight="900">Evaluation trace</text>
  <g font-family="Inter, Arial, sans-serif" font-size="15" font-weight="800">
    <rect x="1090" y="286" width="316" height="48" rx="14" fill="#17243a"/><text x="1116" y="316" fill="#bfdbfe">1 · Resolve target system</text>
    <rect x="1090" y="354" width="316" height="48" rx="14" fill="#17243a"/><text x="1116" y="384" fill="#bfdbfe">2 · Replay conversation</text>
    <rect x="1090" y="422" width="316" height="48" rx="14" fill="#17243a"/><text x="1116" y="452" fill="#bfdbfe">3 · Rule checks</text>
    <rect x="1090" y="490" width="316" height="48" rx="14" fill="#17243a"/><text x="1116" y="520" fill="#bfdbfe">4 · Ollama judge fallback</text>
    <rect x="1090" y="558" width="316" height="48" rx="14" fill="#064e3b"/><text x="1116" y="588" fill="#d1fae5">5 · Report generated</text>
  </g>
  <rect x="1090" y="710" width="316" height="94" rx="18" fill="#f8fafc"/>
  <text x="1118" y="750" fill="#172339" font-family="Inter, Arial, sans-serif" font-size="18" font-weight="900">Markdown + JSON reports</text>
  <text x="1118" y="778" fill="#557083" font-family="Inter, Arial, sans-serif" font-size="14" font-weight="700">request-scoped secrets, masked logs</text>
</svg>
